# xmcd CD database file
#
# Track frame offsets:
#	150
#	17332
#	38031
#	51676
#	67191
#	82668
#	96466
#	115603
#	139212
#	152259
#	168879
#	183783
#	205088
#	221495
#	240382
#	256016
#	272418
#
# Disc length: 3863 seconds
#
# Revision: 1
# Processed by: cddbd v1.5.2PL0 Copyright (c) Steve Scherf et al.
# Submitted via: CDex 1.51
#
DISCID=d50f1511
DTITLE=LOUISIANA SYNCOPATORS - WE'LL MAKE FUN FOR YOU
DYEAR=2001
DGENRE=Jazz
TTITLE0=Malinda's Wedding Day
TTITLE1=Black and Tan Fantasy
TTITLE2=Miss Hannah
TTITLE3=I'm In The Mood For Love
TTITLE4=I'll Make Fun For You
TTITLE5=Saturday Night Function
TTITLE6=I Can't Dance
TTITLE7=Moonglow
TTITLE8=Shanghai Shuffle
TTITLE9=Six or Seven Times
TTITLE10=You Rascal You
TTITLE11=Get Rhythm In Your Feet
TTITLE12=Patrol Wagon Blues
TTITLE13=Toby
TTITLE14=Blue Interlude
TTITLE15=Sheik of Araby
TTITLE16=Sugarfoot Stomp
EXTD=YEAR: 2001
EXTT0=
EXTT1=
EXTT2=
EXTT3=
EXTT4=
EXTT5=
EXTT6=
EXTT7=
EXTT8=
EXTT9=
EXTT10=
EXTT11=
EXTT12=
EXTT13=
EXTT14=
EXTT15=
EXTT16=
PLAYORDER=
